<svg xmlns="http://www.w3.org/2000/svg" xmlns:xlink="http://www.w3.org/1999/xlink" width="918" height="355" contentScriptType="application/ecmascript" contentStyleType="text/css" style="width:918px;height:355px" preserveAspectRatio="none" version="1.1" viewBox="0 0 918 355" zoomAndPan="magnify"><defs><filter id="f2uvpy6xiwtk8" width="300%" height="300%" x="-1" y="-1"><feGaussianBlur result="blurOut" stdDeviation="2"/><feColorMatrix in="blurOut" result="blurOut2" type="matrix" values="0 0 0 0 0 0 0 0 0 0 0 0 0 0 0 0 0 0 .4 0"/><feOffset dx="4" dy="4" in="blurOut2" result="blurOut3"/><feBlend in="SourceGraphic" in2="blurOut3" mode="normal"/></filter></defs><g><polygon fill="#FFE" points="22 24 83 24 90 46.297 896 46.297 896 343 22 343 22 24" filter="url(#f2uvpy6xiwtk8)" style="stroke:#000;stroke-width:1.5"/><line style="stroke:#000;stroke-width:1.5" x1="22" x2="90" y1="46.297" y2="46.297"/><text x="26" y="38.995" fill="#000" font-family="sans-serif" font-size="14" font-weight="bold" lengthAdjust="spacingAndGlyphs" textLength="55">$HOME</text><polygon fill="#FFC" points="345 67 494 67 501 89.297 872 89.297 872 319 345 319 345 67" filter="url(#f2uvpy6xiwtk8)" style="stroke:#000;stroke-width:1.5"/><line style="stroke:#000;stroke-width:1.5" x1="345" x2="501" y1="89.297" y2="89.297"/><text x="349" y="81.995" fill="#000" font-family="sans-serif" font-size="14" font-weight="bold" lengthAdjust="spacingAndGlyphs" textLength="143">Working Directory</text><polygon fill="#FFE" points="544 110 610 110 617 132.297 848 132.297 848 295 544 295 544 110" filter="url(#f2uvpy6xiwtk8)" style="stroke:#000;stroke-width:1.5"/><line style="stroke:#000;stroke-width:1.5" x1="544" x2="617" y1="132.297" y2="132.297"/><text x="548" y="124.995" fill="#000" font-family="sans-serif" font-size="14" font-weight="bold" lengthAdjust="spacingAndGlyphs" textLength="60">.git/info</text><polygon fill="#FF6" points="139.5 145 139.5 181.297 224.5 181.297 224.5 155 214.5 145 139.5 145" filter="url(#f2uvpy6xiwtk8)" style="stroke:#000;stroke-width:1.5"/><path fill="#FF6" d="M214.5,145 L214.5,155 L224.5,155" style="stroke:#000;stroke-width:1.5"/><text x="149.5" y="167.995" fill="#000" font-family="sans-serif" font-size="14" lengthAdjust="spacingAndGlyphs" textLength="65">.gitignore</text><path fill="#FBFB77" d="M38.5,241 L38.5,278.9375 A0,0 0 0 0 38.5,278.9375 L325.5,278.9375 A0,0 0 0 0 325.5,278.9375 L325.5,251 L315.5,241 L186,241 L182,181.424 L178,241 L38.5,241 A0,0 0 0 0 38.5,241" filter="url(#f2uvpy6xiwtk8)" style="stroke:#a80036;stroke-width:1"/><path fill="#FBFB77" d="M315.5,241 L315.5,251 L325.5,251 L315.5,241" style="stroke:#a80036;stroke-width:1"/><text x="44.5" y="268.277" fill="#000" font-family="sans-serif" font-size="24" font-weight="bold" lengthAdjust="spacingAndGlyphs" textLength="266">Global Excludes File</text><polygon fill="#FF6" points="400.5 145 400.5 181.297 485.5 181.297 485.5 155 475.5 145 400.5 145" filter="url(#f2uvpy6xiwtk8)" style="stroke:#000;stroke-width:1.5"/><path fill="#FF6" d="M475.5,145 L475.5,155 L485.5,155" style="stroke:#000;stroke-width:1.5"/><text x="410.5" y="167.995" fill="#000" font-family="sans-serif" font-size="14" lengthAdjust="spacingAndGlyphs" textLength="65">.gitignore</text><path fill="#FBFB77" d="M361,241 L361,278.9375 A0,0 0 0 0 361,278.9375 L525,278.9375 A0,0 0 0 0 525,278.9375 L525,251 L515,241 L447,241 L443,181.424 L439,241 L361,241 A0,0 0 0 0 361,241" filter="url(#f2uvpy6xiwtk8)" style="stroke:#a80036;stroke-width:1"/><path fill="#FBFB77" d="M515,241 L515,251 L525,251 L515,241" style="stroke:#a80036;stroke-width:1"/><text x="367" y="268.277" fill="#000" font-family="sans-serif" font-size="24" font-weight="bold" lengthAdjust="spacingAndGlyphs" textLength="143">Ignore File</text><polygon fill="#FF6" points="659 145 659 181.297 733 181.297 733 155 723 145 659 145" filter="url(#f2uvpy6xiwtk8)" style="stroke:#000;stroke-width:1.5"/><path fill="#FF6" d="M723,145 L723,155 L733,155" style="stroke:#000;stroke-width:1.5"/><text x="669" y="167.995" fill="#000" font-family="sans-serif" font-size="14" lengthAdjust="spacingAndGlyphs" textLength="54">exclude</text><path fill="#FBFB77" d="M560.5,241 L560.5,278.9375 A0,0 0 0 0 560.5,278.9375 L831.5,278.9375 A0,0 0 0 0 831.5,278.9375 L831.5,251 L821.5,241 L700,241 L696,181.424 L692,241 L560.5,241 A0,0 0 0 0 560.5,241" filter="url(#f2uvpy6xiwtk8)" style="stroke:#a80036;stroke-width:1"/><path fill="#FBFB77" d="M821.5,241 L821.5,251 L831.5,251 L821.5,241" style="stroke:#a80036;stroke-width:1"/><text x="566.5" y="268.277" fill="#000" font-family="sans-serif" font-size="24" font-weight="bold" lengthAdjust="spacingAndGlyphs" textLength="250">Local Excludes File</text></g></svg>