<?xml version="1.0" encoding="UTF-8" standalone="no"?><svg xmlns="http://www.w3.org/2000/svg" xmlns:xlink="http://www.w3.org/1999/xlink" contentScriptType="application/ecmascript" contentStyleType="text/css" height="355px" preserveAspectRatio="none" style="width:918px;height:355px;" version="1.1" viewBox="0 0 918 355" width="918px" zoomAndPan="magnify"><defs><filter height="300%" id="f2uvpy6xiwtk8" width="300%" x="-1" y="-1"><feGaussianBlur result="blurOut" stdDeviation="2.0"/><feColorMatrix in="blurOut" result="blurOut2" type="matrix" values="0 0 0 0 0 0 0 0 0 0 0 0 0 0 0 0 0 0 .4 0"/><feOffset dx="4.0" dy="4.0" in="blurOut2" result="blurOut3"/><feBlend in="SourceGraphic" in2="blurOut3" mode="normal"/></filter></defs><g><!--cluster home--><polygon fill="#FFFFEE" filter="url(#f2uvpy6xiwtk8)" points="22,24,83,24,90,46.2969,896,46.2969,896,343,22,343,22,24" style="stroke: #000000; stroke-width: 1.5;"/><line style="stroke: #000000; stroke-width: 1.5;" x1="22" x2="90" y1="46.2969" y2="46.2969"/><text fill="#000000" font-family="sans-serif" font-size="14" font-weight="bold" lengthAdjust="spacingAndGlyphs" textLength="55" x="26" y="38.9951">$HOME</text><!--cluster wd--><polygon fill="#FFFFCC" filter="url(#f2uvpy6xiwtk8)" points="345,67,494,67,501,89.2969,872,89.2969,872,319,345,319,345,67" style="stroke: #000000; stroke-width: 1.5;"/><line style="stroke: #000000; stroke-width: 1.5;" x1="345" x2="501" y1="89.2969" y2="89.2969"/><text fill="#000000" font-family="sans-serif" font-size="14" font-weight="bold" lengthAdjust="spacingAndGlyphs" textLength="143" x="349" y="81.9951">Working Directory</text><!--cluster repo--><polygon fill="#FFFFEE" filter="url(#f2uvpy6xiwtk8)" points="544,110,610,110,617,132.2969,848,132.2969,848,295,544,295,544,110" style="stroke: #000000; stroke-width: 1.5;"/><line style="stroke: #000000; stroke-width: 1.5;" x1="544" x2="617" y1="132.2969" y2="132.2969"/><text fill="#000000" font-family="sans-serif" font-size="14" font-weight="bold" lengthAdjust="spacingAndGlyphs" textLength="60" x="548" y="124.9951">.git/info</text><!--entity gg--><polygon fill="#FFFF66" filter="url(#f2uvpy6xiwtk8)" points="139.5,145,139.5,181.2969,224.5,181.2969,224.5,155,214.5,145,139.5,145" style="stroke: #000000; stroke-width: 1.5;"/><path d="M214.5,145 L214.5,155 L224.5,155 " fill="#FFFF66" style="stroke: #000000; stroke-width: 1.5;"/><text fill="#000000" font-family="sans-serif" font-size="14" lengthAdjust="spacingAndGlyphs" textLength="65" x="149.5" y="167.9951">.gitignore</text><path d="M38.5,241 L38.5,278.9375 A0,0 0 0 0 38.5,278.9375 L325.5,278.9375 A0,0 0 0 0 325.5,278.9375 L325.5,251 L315.5,241 L186,241 L182,181.424 L178,241 L38.5,241 A0,0 0 0 0 38.5,241 " fill="#FBFB77" filter="url(#f2uvpy6xiwtk8)" style="stroke: #A80036; stroke-width: 1.0;"/><path d="M315.5,241 L315.5,251 L325.5,251 L315.5,241 " fill="#FBFB77" style="stroke: #A80036; stroke-width: 1.0;"/><text fill="#000000" font-family="sans-serif" font-size="24" font-weight="bold" lengthAdjust="spacingAndGlyphs" textLength="266" x="44.5" y="268.2773">Global Excludes File</text><!--entity .gitignore--><polygon fill="#FFFF66" filter="url(#f2uvpy6xiwtk8)" points="400.5,145,400.5,181.2969,485.5,181.2969,485.5,155,475.5,145,400.5,145" style="stroke: #000000; stroke-width: 1.5;"/><path d="M475.5,145 L475.5,155 L485.5,155 " fill="#FFFF66" style="stroke: #000000; stroke-width: 1.5;"/><text fill="#000000" font-family="sans-serif" font-size="14" lengthAdjust="spacingAndGlyphs" textLength="65" x="410.5" y="167.9951">.gitignore</text><path d="M361,241 L361,278.9375 A0,0 0 0 0 361,278.9375 L525,278.9375 A0,0 0 0 0 525,278.9375 L525,251 L515,241 L447,241 L443,181.424 L439,241 L361,241 A0,0 0 0 0 361,241 " fill="#FBFB77" filter="url(#f2uvpy6xiwtk8)" style="stroke: #A80036; stroke-width: 1.0;"/><path d="M515,241 L515,251 L525,251 L515,241 " fill="#FBFB77" style="stroke: #A80036; stroke-width: 1.0;"/><text fill="#000000" font-family="sans-serif" font-size="24" font-weight="bold" lengthAdjust="spacingAndGlyphs" textLength="143" x="367" y="268.2773">Ignore File</text><!--entity exclude--><polygon fill="#FFFF66" filter="url(#f2uvpy6xiwtk8)" points="659,145,659,181.2969,733,181.2969,733,155,723,145,659,145" style="stroke: #000000; stroke-width: 1.5;"/><path d="M723,145 L723,155 L733,155 " fill="#FFFF66" style="stroke: #000000; stroke-width: 1.5;"/><text fill="#000000" font-family="sans-serif" font-size="14" lengthAdjust="spacingAndGlyphs" textLength="54" x="669" y="167.9951">exclude</text><path d="M560.5,241 L560.5,278.9375 A0,0 0 0 0 560.5,278.9375 L831.5,278.9375 A0,0 0 0 0 831.5,278.9375 L831.5,251 L821.5,241 L700,241 L696,181.424 L692,241 L560.5,241 A0,0 0 0 0 560.5,241 " fill="#FBFB77" filter="url(#f2uvpy6xiwtk8)" style="stroke: #A80036; stroke-width: 1.0;"/><path d="M821.5,241 L821.5,251 L831.5,251 L821.5,241 " fill="#FBFB77" style="stroke: #A80036; stroke-width: 1.0;"/><text fill="#000000" font-family="sans-serif" font-size="24" font-weight="bold" lengthAdjust="spacingAndGlyphs" textLength="250" x="566.5" y="268.2773">Local Excludes File</text><!--
@startuml
folder home as "$HOME" #FFE {

    folder wd as "Working Directory" #FFC {
        
        file ".gitignore" #FF6
        note bottom
          **<size:24>Ignore File**
        end note

        folder repo as ".git/info" #FFE {
            file "exclude" #FF6
            note bottom
              **<size:24>Local Excludes File**
            end note

        }
    }

    file gg as ".gitignore" #FF6
    note bottom
      **<size:24>Global Excludes File**
    end note

}
@enduml

PlantUML version 1.2018.12(Sun Oct 21 10:15:15 UTC 2018)
(GPL source distribution)
Java Runtime: Java(TM) SE Runtime Environment
JVM: Java HotSpot(TM) 64-Bit Server VM
Java Version: 1.7.0_25-b15
Operating System: Linux
Default Encoding: UTF-8
Language: en
Country: US
--></g></svg>