<svg xmlns="http://www.w3.org/2000/svg" xmlns:xlink="http://www.w3.org/1999/xlink" width="963" height="355" contentScriptType="application/ecmascript" contentStyleType="text/css" style="width:963px;height:355px" preserveAspectRatio="none" version="1.1" viewBox="0 0 963 355" zoomAndPan="magnify"><defs><filter id="fnzux444lxqmq" width="300%" height="300%" x="-1" y="-1"><feGaussianBlur result="blurOut" stdDeviation="2"/><feColorMatrix in="blurOut" result="blurOut2" type="matrix" values="0 0 0 0 0 0 0 0 0 0 0 0 0 0 0 0 0 0 .4 0"/><feOffset dx="4" dy="4" in="blurOut2" result="blurOut3"/><feBlend in="SourceGraphic" in2="blurOut3" mode="normal"/></filter></defs><g><polygon fill="#FFE" points="22 24 83 24 90 46.297 941 46.297 941 343 22 343 22 24" filter="url(#fnzux444lxqmq)" style="stroke:#000;stroke-width:1.5"/><line style="stroke:#000;stroke-width:1.5" x1="22" x2="90" y1="46.297" y2="46.297"/><text x="26" y="38.995" fill="#000" font-family="sans-serif" font-size="14" font-weight="bold" lengthAdjust="spacingAndGlyphs" textLength="55">$HOME</text><polygon fill="#FFC" points="390 67 539 67 546 89.297 917 89.297 917 319 390 319 390 67" filter="url(#fnzux444lxqmq)" style="stroke:#000;stroke-width:1.5"/><line style="stroke:#000;stroke-width:1.5" x1="390" x2="546" y1="89.297" y2="89.297"/><text x="394" y="81.995" fill="#000" font-family="sans-serif" font-size="14" font-weight="bold" lengthAdjust="spacingAndGlyphs" textLength="143">Working Directory</text><polygon fill="#FFE" points="589 110 655 110 662 132.297 893 132.297 893 295 589 295 589 110" filter="url(#fnzux444lxqmq)" style="stroke:#000;stroke-width:1.5"/><line style="stroke:#000;stroke-width:1.5" x1="589" x2="662" y1="132.297" y2="132.297"/><text x="593" y="124.995" fill="#000" font-family="sans-serif" font-size="14" font-weight="bold" lengthAdjust="spacingAndGlyphs" textLength="60">.git/info</text><polygon fill="#FFC" points="46 110 136 110 143 132.297 366 132.297 366 295 46 295 46 110" filter="url(#fnzux444lxqmq)" style="stroke:#000;stroke-width:1.5"/><line style="stroke:#000;stroke-width:1.5" x1="46" x2="143" y1="132.297" y2="132.297"/><text x="50" y="124.995" fill="#000" font-family="sans-serif" font-size="14" font-weight="bold" lengthAdjust="spacingAndGlyphs" textLength="84">.config/git/</text><polygon fill="#FF6" points="445.5 145 445.5 181.297 530.5 181.297 530.5 155 520.5 145 445.5 145" filter="url(#fnzux444lxqmq)" style="stroke:#000;stroke-width:1.5"/><path fill="#FF6" d="M520.5,145 L520.5,155 L530.5,155" style="stroke:#000;stroke-width:1.5"/><text x="455.5" y="167.995" fill="#000" font-family="sans-serif" font-size="14" lengthAdjust="spacingAndGlyphs" textLength="65">.gitignore</text><path fill="#FBFB77" d="M406,241 L406,278.9375 A0,0 0 0 0 406,278.9375 L570,278.9375 A0,0 0 0 0 570,278.9375 L570,251 L560,241 L492,241 L488,181.424 L484,241 L406,241 A0,0 0 0 0 406,241" filter="url(#fnzux444lxqmq)" style="stroke:#a80036;stroke-width:1"/><path fill="#FBFB77" d="M560,241 L560,251 L570,251 L560,241" style="stroke:#a80036;stroke-width:1"/><text x="412" y="268.277" fill="#000" font-family="sans-serif" font-size="24" font-weight="bold" lengthAdjust="spacingAndGlyphs" textLength="143">Ignore File</text><polygon fill="#FF6" points="704 145 704 181.297 778 181.297 778 155 768 145 704 145" filter="url(#fnzux444lxqmq)" style="stroke:#000;stroke-width:1.5"/><path fill="#FF6" d="M768,145 L768,155 L778,155" style="stroke:#000;stroke-width:1.5"/><text x="714" y="167.995" fill="#000" font-family="sans-serif" font-size="14" lengthAdjust="spacingAndGlyphs" textLength="54">exclude</text><path fill="#FBFB77" d="M605.5,241 L605.5,278.9375 A0,0 0 0 0 605.5,278.9375 L876.5,278.9375 A0,0 0 0 0 876.5,278.9375 L876.5,251 L866.5,241 L745,241 L741,181.424 L737,241 L605.5,241 A0,0 0 0 0 605.5,241" filter="url(#fnzux444lxqmq)" style="stroke:#a80036;stroke-width:1"/><path fill="#FBFB77" d="M866.5,241 L866.5,251 L876.5,251 L866.5,241" style="stroke:#a80036;stroke-width:1"/><text x="611.5" y="268.277" fill="#000" font-family="sans-serif" font-size="24" font-weight="bold" lengthAdjust="spacingAndGlyphs" textLength="250">Local Excludes File</text><polygon fill="#FF6" points="174 145 174 181.297 238 181.297 238 155 228 145 174 145" filter="url(#fnzux444lxqmq)" style="stroke:#000;stroke-width:1.5"/><path fill="#FF6" d="M228,145 L228,155 L238,155" style="stroke:#000;stroke-width:1.5"/><text x="184" y="167.995" fill="#000" font-family="sans-serif" font-size="14" lengthAdjust="spacingAndGlyphs" textLength="44">ignore</text><path fill="#FBFB77" d="M62.5,241 L62.5,278.9375 A0,0 0 0 0 62.5,278.9375 L349.5,278.9375 A0,0 0 0 0 349.5,278.9375 L349.5,251 L339.5,241 L210,241 L206,181.424 L202,241 L62.5,241 A0,0 0 0 0 62.5,241" filter="url(#fnzux444lxqmq)" style="stroke:#a80036;stroke-width:1"/><path fill="#FBFB77" d="M339.5,241 L339.5,251 L349.5,251 L339.5,241" style="stroke:#a80036;stroke-width:1"/><text x="68.5" y="268.277" fill="#000" font-family="sans-serif" font-size="24" font-weight="bold" lengthAdjust="spacingAndGlyphs" textLength="266">Global Excludes File</text></g></svg>